<svg xmlns="http://www.w3.org/2000/svg" viewBox="0 0 100 112" aria-hidden="true">
  <polygon points="50,2 37,20 44,20 44,34 56,34 56,20 63,20" fill="#ffffff"/>
  <polygon points="10,23 26,23 36,78 20,78" fill="#ffffff"/>
  <polygon points="90,23 74,23 64,78 80,78" fill="#ffffff"/>
  <polygon points="26,23 44,34 38,78 20,78" fill="rgba(255,255,255,0.72)"/>
  <polygon points="74,23 56,34 62,78 80,78" fill="rgba(255,255,255,0.72)"/>
  <polygon points="20,78 50,94 80,78 80,87 50,103 20,87" fill="#ffffff"/>
  <polygon points="28,65 50,80 72,65 72,73 50,88 28,73" fill="rgba(255,255,255,0.72)"/>
  <polygon points="36,53 50,66 64,53 64,60 50,73 36,60" fill="rgba(255,255,255,0.48)"/>
</svg>